<?xml version="1.0" encoding="utf-8"?>
<!-- Generator: Adobe Illustrator 25.4.1, SVG Export Plug-In . SVG Version: 6.00 Build 0)  -->
<svg version="1.1" id="Layer_1" xmlns="http://www.w3.org/2000/svg" xmlns:xlink="http://www.w3.org/1999/xlink" x="0px" y="0px"
	 viewBox="0 0 800 800" style="enable-background:new 0 0 800 800;" xml:space="preserve">
<style type="text/css">
	.st0{fill-rule:evenodd;clip-rule:evenodd;fill:#FFFFFF;}
</style>
<g id="Page-1">
	<g id="Dribbble-Light-Preview" transform="translate(-102.000000, -7439.000000)">
		<g id="icons" transform="translate(56.000000, 160.000000)">
			<path id="apple-_x5B__x23_173_x5D_" class="st0" d="M568.8,7406.7c29.2-33.8,48.8-80.9,43.4-127.7c-42,1.6-92.9,26.8-123,60.6
				c-27.1,30-50.7,77.8-44.3,123.8C491.8,7466.8,539.7,7440.6,568.8,7406.7 M674,7704c1.2,121.1,110.8,161.3,112,161.9
				c-0.9,2.8-17.5,57.4-57.8,113.8c-34.8,48.7-70.9,97.2-127.9,98.3c-55.9,1-73.9-31.8-137.8-31.8c-63.9,0-83.9,30.7-136.8,32.8
				c-54.9,2-96.8-52.7-131.9-101.3c-71.8-99.3-126.6-280.7-52.9-403.1c36.6-60.8,101.9-99.3,172.8-100.3
				c53.9-1,104.8,34.8,137.8,34.8c33,0,94.9-43,159.9-36.7c27.2,1.1,103.7,10.5,152.7,79.4C760.2,7554.2,673,7602.8,674,7704"/>
		</g>
	</g>
</g>
</svg>
